<svg xmlns="http://www.w3.org/2000/svg" viewBox="0 0 618.05 221.35"><defs><style>.cls-1{fill:#001ecc;}</style></defs><g id="Layer_2" data-name="Layer 2"><g id="Layer_1-2" data-name="Layer 1"><rect class="cls-1" x="234.08" y="7.44" width="36" height="36" rx="18"/><rect class="cls-1" x="234.08" y="55.44" width="36" height="123"/><path class="cls-1" d="M284.15,79.69h16.19c0,2.67,0,4.83,0,7,.24,20,0,40,.91,59.93.5,11.5,5.82,21.34,16.41,26.8q2.22,1.14,4.44,2c14.62,5.85,29.27,3.56,43.85-2.91-1.33-8.84-2.58-17.13-3.86-25.59-1.78.43-2.88.8-4,1-11.19,1.54-19.27.82-22-8.26a29.67,29.67,0,0,1-1-9.08c.28-14,0-28,0-42V79.22H363.8V52.15H336.08V16.44h-36v36h-16v27h.07Z"/><rect class="cls-1" x="174.08" y="7.44" width="36" height="171"/><path class="cls-1" d="M6.08,87.44h5v92H41.16a3.45,3.45,0,0,1-.08-.72v-9.55a3.73,3.73,0,0,1,3.73-3.73H99.36a3.72,3.72,0,0,1,3.72,3.73v9.55a3.45,3.45,0,0,1-.07.72h7.07a46,46,0,0,0,19.07-87.86A45.5,45.5,0,0,0,103.58,8.44H11.08v35h-5a5,5,0,0,0-5,5v34A5,5,0,0,0,6.08,87.44Zm102.27,51a8.91,8.91,0,1,1,8.91-8.91A8.91,8.91,0,0,1,108.35,138.48ZM27.08,45.76A12.89,12.89,0,0,1,40,32.87h64.22a12.89,12.89,0,0,1,12.89,12.89V74.17a12.89,12.89,0,0,1-12.89,12.89H92.58L108.79,83l-.06-.27L81,87.06H56.41L72.62,83l-.05-.27L44.86,87.06H40A12.89,12.89,0,0,1,27.08,74.17Zm8.74,74.9a8.91,8.91,0,1,1-8.91,8.91A8.91,8.91,0,0,1,35.82,120.66ZM9.08,47.44h2v36h-2Z"/><path class="cls-1" d="M433.08,48.44c-34.79,0-63,29.1-63,65s28.21,65,63,65,63-29.1,63-65S467.88,48.44,433.08,48.44Zm0,95.95c-16.56,0-30-13.85-30-30.95s13.44-30.95,30-30.95,30,13.86,30,31S449.65,144.39,433.08,144.39Z"/><path class="cls-1" d="M396.07,174.08a68.12,68.12,0,0,0,19.12,8.62,229.21,229.21,0,0,1-35.57,18.52c-2.19.88-4.31,1.76-6.58,2.6s-4.51,1.6-6.77,2.32c-4.52,1.42-9,2.69-13.57,3.75-9.06,2.19-18.14,3.82-27.23,5.2s-18.18,2.45-27.29,3.25S280.08,220,271,220.48s-18.25.78-27.37.85c-4.56.06-9.13,0-13.68-.06s-9.12-.2-13.67-.45q-27.31-1.17-54.36-5c-9-1.24-18-2.64-26.87-4.11-4.45-.72-8.87-1.43-13.27-2s-8.83-1-13.28-1.3A322.38,322.38,0,0,0,2,219.48a1.57,1.57,0,0,1-.87-3,342.65,342.65,0,0,1,53.17-11.62,328.52,328.52,0,0,1,54.5-2.77c4.56.15,9.15.41,13.71.84s9.09,1,13.57,1.54c9,1.14,17.87,2.21,26.81,3.1q26.77,2.76,53.63,2.94c4.47.08,8.94,0,13.41-.06s8.93-.2,13.39-.42q13.39-.57,26.71-1.88c8.88-.87,17.73-2,26.67-3.2s17.64-2.55,26.35-4.21,17.34-3.58,25.75-6c4.21-1.17,8.37-2.44,12.42-3.85,2-.72,4-1.45,6-2.25s4-1.7,5.95-2.56A218.77,218.77,0,0,0,396.07,174.08ZM617.36,6.79a10.54,10.54,0,0,0-13.6-6.1,101.78,101.78,0,0,0-10.63,4.87q-5.13,2.67-10,5.63c-6.51,3.94-12.73,8.22-18.75,12.73Q556,30.24,548.05,37.17L466.92,18.84a8.81,8.81,0,0,0-9.36,3.84l-1.34,2.1a2,2,0,0,0,.74,2.88l64.17,35.09c-2.31,2.18-4.63,4.33-7,6.44-5.6,5-11.28,9.9-16.93,14.84l-.79.69a74.93,74.93,0,0,1,5.67,28.72c0,.25,0,.49,0,.74l12.18-9.29,17.93-13.74c2.55-1.93,5.14-3.81,7.74-5.67l21.65,69.84a2,2,0,0,0,2.67,1.29l2.32-.89a8.81,8.81,0,0,0,5.63-8.41l-1.88-83.59q8.22-6.39,15.9-13.42c5.55-5.07,10.92-10.37,16-16q3.82-4.22,7.4-8.7a107.15,107.15,0,0,0,6.8-9.42l.06-.08A10.57,10.57,0,0,0,617.36,6.79Z"/></g></g></svg>